<svg width="160" height="21" viewBox="0 0 160 13" fill="none" xmlns="http://www.w3.org/2000/svg">
<g filter="url(#filter0_d_1_6)">
<path d="M11.76 10.276L5.052 3.472L5.388 3.556L5.412 10H4.248V1.06H4.308L10.944 7.888L10.668 7.828L10.644 1.324H11.796V10.276H11.76ZM16.319 10.12C15.751 10.12 15.263 10.008 14.855 9.784C14.447 9.552 14.131 9.24 13.907 8.848C13.691 8.448 13.583 7.992 13.583 7.48C13.583 6.992 13.707 6.548 13.955 6.148C14.203 5.748 14.535 5.428 14.951 5.188C15.367 4.948 15.831 4.828 16.343 4.828C16.999 4.828 17.543 5.02 17.975 5.404C18.407 5.788 18.699 6.316 18.851 6.988L14.759 8.428L14.495 7.768L17.855 6.544L17.615 6.7C17.519 6.436 17.359 6.208 17.135 6.016C16.911 5.816 16.619 5.716 16.259 5.716C15.955 5.716 15.683 5.792 15.443 5.944C15.203 6.088 15.015 6.288 14.879 6.544C14.743 6.8 14.675 7.092 14.675 7.42C14.675 7.764 14.747 8.068 14.891 8.332C15.035 8.588 15.231 8.792 15.479 8.944C15.735 9.088 16.023 9.16 16.343 9.16C16.559 9.16 16.767 9.12 16.967 9.04C17.175 8.96 17.367 8.856 17.543 8.728L18.059 9.556C17.811 9.724 17.531 9.86 17.219 9.964C16.915 10.068 16.615 10.12 16.319 10.12ZM21.9807 6.88L23.1687 5.032H24.2967L22.3887 7.696L21.9807 6.88ZM24.4887 10H23.1447L19.3647 5.032H20.7447L24.4887 10ZM21.8607 8.152L20.5527 10H19.4247L21.3207 7.408L21.8607 8.152ZM26.1668 2.848H27.2828V5.056H28.6508V5.932H27.2828V10H26.1668V5.932H25.2548V5.056H26.1668V2.848ZM29.4353 9.364C29.4353 9.188 29.4993 9.04 29.6273 8.92C29.7633 8.792 29.9113 8.728 30.0713 8.728C30.2153 8.728 30.3513 8.792 30.4793 8.92C30.6153 9.04 30.6833 9.188 30.6833 9.364C30.6833 9.556 30.6153 9.712 30.4793 9.832C30.3513 9.944 30.2153 10 30.0713 10C29.9113 10 29.7633 9.944 29.6273 9.832C29.4993 9.712 29.4353 9.556 29.4353 9.364ZM32.075 12.388L31.415 11.704C31.639 11.512 31.815 11.272 31.943 10.984C32.071 10.704 32.135 10.372 32.135 9.988V5.032H33.263V10.036C33.263 10.596 33.167 11.068 32.975 11.452C32.791 11.844 32.491 12.156 32.075 12.388ZM32.039 3.232C32.039 3.056 32.107 2.908 32.243 2.788C32.387 2.668 32.543 2.608 32.711 2.608C32.879 2.608 33.027 2.668 33.155 2.788C33.291 2.908 33.359 3.056 33.359 3.232C33.359 3.416 33.291 3.568 33.155 3.688C33.027 3.8 32.879 3.856 32.711 3.856C32.543 3.856 32.387 3.796 32.243 3.676C32.107 3.556 32.039 3.408 32.039 3.232ZM36.5124 10.096C36.1604 10.096 35.8164 10.036 35.4804 9.916C35.1524 9.788 34.8804 9.6 34.6644 9.352L35.1324 8.704C35.3404 8.904 35.5524 9.056 35.7684 9.16C35.9924 9.256 36.2124 9.304 36.4284 9.304C36.5884 9.304 36.7364 9.284 36.8724 9.244C37.0084 9.204 37.1164 9.14 37.1964 9.052C37.2844 8.956 37.3284 8.828 37.3284 8.668C37.3284 8.492 37.2684 8.352 37.1484 8.248C37.0364 8.144 36.8884 8.06 36.7044 7.996C36.5284 7.932 36.3404 7.872 36.1404 7.816C35.7324 7.68 35.4204 7.492 35.2044 7.252C34.9884 7.012 34.8804 6.72 34.8804 6.376C34.8804 6.112 34.9444 5.868 35.0724 5.644C35.2084 5.412 35.4044 5.224 35.6604 5.08C35.9244 4.936 36.2484 4.864 36.6324 4.864C36.9764 4.864 37.2844 4.908 37.5564 4.996C37.8284 5.076 38.0844 5.212 38.3244 5.404L37.8804 6.1C37.7364 5.948 37.5644 5.836 37.3644 5.764C37.1644 5.692 36.9844 5.652 36.8244 5.644C36.6884 5.636 36.5564 5.656 36.4284 5.704C36.3084 5.752 36.2084 5.82 36.1284 5.908C36.0484 5.996 36.0084 6.1 36.0084 6.22C36.0084 6.388 36.0644 6.524 36.1764 6.628C36.2884 6.732 36.4324 6.816 36.6084 6.88C36.7924 6.936 36.9724 6.996 37.1484 7.06C37.3964 7.132 37.6164 7.228 37.8084 7.348C38.0004 7.468 38.1524 7.616 38.2644 7.792C38.3844 7.968 38.4444 8.188 38.4444 8.452C38.4444 8.748 38.3724 9.024 38.2284 9.28C38.0924 9.528 37.8804 9.728 37.5924 9.88C37.3124 10.024 36.9524 10.096 36.5124 10.096ZM39.6712 6.928H41.9152V7.912H39.6712V6.928ZM43.9277 10V1.048H43.9397L48.4877 7.504L47.9957 7.408L52.5317 1.048H52.5557V10H51.4037V3.688L51.4757 4.276L48.1997 8.908H48.1757L44.8517 4.276L45.0557 3.736V10H43.9277ZM56.8368 10.12C56.3728 10.12 55.9488 10.02 55.5648 9.82C55.1888 9.62 54.8888 9.328 54.6648 8.944C54.4488 8.552 54.3408 8.076 54.3408 7.516C54.3408 6.964 54.4568 6.488 54.6888 6.088C54.9208 5.68 55.2288 5.368 55.6128 5.152C56.0048 4.936 56.4328 4.828 56.8968 4.828C57.3608 4.828 57.7528 4.936 58.0728 5.152C58.3928 5.36 58.6368 5.608 58.8048 5.896L58.7328 6.088L58.8408 5.032H59.8728V10H58.7568V8.704L58.8768 8.992C58.8448 9.072 58.7728 9.176 58.6608 9.304C58.5568 9.424 58.4128 9.548 58.2288 9.676C58.0528 9.804 57.8488 9.912 57.6168 10C57.3848 10.08 57.1248 10.12 56.8368 10.12ZM57.1368 9.196C57.4168 9.196 57.6688 9.144 57.8928 9.04C58.1168 8.936 58.3008 8.792 58.4448 8.608C58.5968 8.416 58.7008 8.188 58.7568 7.924V6.952C58.6928 6.712 58.5808 6.504 58.4208 6.328C58.2608 6.144 58.0688 6.004 57.8448 5.908C57.6208 5.804 57.3728 5.752 57.1008 5.752C56.8048 5.752 56.5328 5.824 56.2848 5.968C56.0368 6.112 55.8368 6.312 55.6848 6.568C55.5408 6.824 55.4688 7.124 55.4688 7.468C55.4688 7.788 55.5448 8.08 55.6968 8.344C55.8488 8.608 56.0528 8.816 56.3088 8.968C56.5648 9.12 56.8408 9.196 57.1368 9.196ZM62.284 2.848H63.4V5.056H64.768V5.932H63.4V10H62.284V5.932H61.372V5.056H62.284V2.848ZM68.4205 10.12C67.8525 10.12 67.3645 10.008 66.9565 9.784C66.5485 9.552 66.2325 9.24 66.0085 8.848C65.7925 8.448 65.6845 7.992 65.6845 7.48C65.6845 6.992 65.8085 6.548 66.0565 6.148C66.3045 5.748 66.6365 5.428 67.0525 5.188C67.4685 4.948 67.9325 4.828 68.4445 4.828C69.1005 4.828 69.6445 5.02 70.0765 5.404C70.5085 5.788 70.8005 6.316 70.9525 6.988L66.8605 8.428L66.5965 7.768L69.9565 6.544L69.7165 6.7C69.6205 6.436 69.4605 6.208 69.2365 6.016C69.0125 5.816 68.7205 5.716 68.3605 5.716C68.0565 5.716 67.7845 5.792 67.5445 5.944C67.3045 6.088 67.1165 6.288 66.9805 6.544C66.8445 6.8 66.7765 7.092 66.7765 7.42C66.7765 7.764 66.8485 8.068 66.9925 8.332C67.1365 8.588 67.3325 8.792 67.5805 8.944C67.8365 9.088 68.1245 9.16 68.4445 9.16C68.6605 9.16 68.8685 9.12 69.0685 9.04C69.2765 8.96 69.4685 8.856 69.6445 8.728L70.1605 9.556C69.9125 9.724 69.6325 9.86 69.3205 9.964C69.0165 10.068 68.7165 10.12 68.4205 10.12ZM73.3469 5.032L73.4549 6.472L73.3949 6.28C73.5229 5.976 73.7069 5.72 73.9469 5.512C74.1949 5.296 74.4509 5.132 74.7149 5.02C74.9869 4.9 75.2229 4.84 75.4229 4.84L75.3629 5.944C74.9869 5.92 74.6549 5.992 74.3669 6.16C74.0869 6.328 73.8629 6.552 73.6949 6.832C73.5349 7.112 73.4549 7.412 73.4549 7.732V10H72.3509V5.032H73.3469ZM76.8626 5.032H77.9786V10H76.8626V5.032ZM76.7786 3.232C76.7786 3.056 76.8466 2.908 76.9826 2.788C77.1266 2.668 77.2826 2.608 77.4506 2.608C77.6186 2.608 77.7666 2.668 77.8946 2.788C78.0306 2.908 78.0986 3.056 78.0986 3.232C78.0986 3.416 78.0306 3.568 77.8946 3.688C77.7666 3.8 77.6186 3.856 77.4506 3.856C77.2826 3.856 77.1266 3.796 76.9826 3.676C76.8466 3.556 76.7786 3.408 76.7786 3.232ZM81.9735 10.12C81.5095 10.12 81.0855 10.02 80.7015 9.82C80.3255 9.62 80.0255 9.328 79.8015 8.944C79.5855 8.552 79.4775 8.076 79.4775 7.516C79.4775 6.964 79.5935 6.488 79.8255 6.088C80.0575 5.68 80.3655 5.368 80.7495 5.152C81.1415 4.936 81.5695 4.828 82.0335 4.828C82.4975 4.828 82.8895 4.936 83.2095 5.152C83.5295 5.36 83.7735 5.608 83.9415 5.896L83.8695 6.088L83.9775 5.032H85.0095V10H83.8935V8.704L84.0135 8.992C83.9815 9.072 83.9095 9.176 83.7975 9.304C83.6935 9.424 83.5495 9.548 83.3655 9.676C83.1895 9.804 82.9855 9.912 82.7535 10C82.5215 10.08 82.2615 10.12 81.9735 10.12ZM82.2735 9.196C82.5535 9.196 82.8055 9.144 83.0295 9.04C83.2535 8.936 83.4375 8.792 83.5815 8.608C83.7335 8.416 83.8375 8.188 83.8935 7.924V6.952C83.8295 6.712 83.7175 6.504 83.5575 6.328C83.3975 6.144 83.2055 6.004 82.9815 5.908C82.7575 5.804 82.5095 5.752 82.2375 5.752C81.9415 5.752 81.6695 5.824 81.4215 5.968C81.1735 6.112 80.9735 6.312 80.8215 6.568C80.6775 6.824 80.6055 7.124 80.6055 7.468C80.6055 7.788 80.6815 8.08 80.8335 8.344C80.9855 8.608 81.1895 8.816 81.4455 8.968C81.7015 9.12 81.9775 9.196 82.2735 9.196ZM86.9408 0.711999H88.0568V10H86.9408V0.711999ZM89.6516 6.928H91.8956V7.912H89.6516V6.928ZM98.3962 2.872C98.1002 2.72 97.7762 2.588 97.4242 2.476C97.0722 2.364 96.7282 2.308 96.3922 2.308C95.9282 2.308 95.5562 2.416 95.2762 2.632C95.0042 2.848 94.8682 3.136 94.8682 3.496C94.8682 3.768 94.9562 4 95.1322 4.192C95.3082 4.376 95.5402 4.536 95.8282 4.672C96.1162 4.808 96.4162 4.936 96.7282 5.056C97.0002 5.16 97.2682 5.276 97.5322 5.404C97.7962 5.532 98.0322 5.692 98.2402 5.884C98.4562 6.076 98.6242 6.312 98.7442 6.592C98.8722 6.872 98.9362 7.22 98.9362 7.636C98.9362 8.092 98.8202 8.508 98.5882 8.884C98.3642 9.26 98.0402 9.556 97.6162 9.772C97.1922 9.988 96.6882 10.096 96.1042 10.096C95.7202 10.096 95.3522 10.052 95.0002 9.964C94.6562 9.876 94.3362 9.764 94.0402 9.628C93.7442 9.484 93.4802 9.336 93.2482 9.184L93.7642 8.272C93.9562 8.408 94.1762 8.54 94.4242 8.668C94.6722 8.788 94.9322 8.888 95.2042 8.968C95.4762 9.04 95.7402 9.076 95.9962 9.076C96.2682 9.076 96.5362 9.028 96.8002 8.932C97.0722 8.828 97.2962 8.672 97.4722 8.464C97.6482 8.256 97.7362 7.98 97.7362 7.636C97.7362 7.34 97.6562 7.096 97.4962 6.904C97.3442 6.704 97.1402 6.536 96.8842 6.4C96.6282 6.256 96.3562 6.128 96.0682 6.016C95.7962 5.912 95.5202 5.8 95.2402 5.68C94.9602 5.552 94.7002 5.4 94.4602 5.224C94.2202 5.04 94.0282 4.816 93.8842 4.552C93.7402 4.288 93.6682 3.968 93.6682 3.592C93.6682 3.136 93.7762 2.74 93.9922 2.404C94.2162 2.06 94.5202 1.792 94.9042 1.6C95.2882 1.4 95.7282 1.292 96.2242 1.276C96.7842 1.276 97.2762 1.344 97.7002 1.48C98.1322 1.616 98.5122 1.784 98.8402 1.984L98.3962 2.872ZM101.097 2.848H102.213V5.056H103.581V5.932H102.213V10H101.097V5.932H100.185V5.056H101.097V2.848ZM106.993 10.12C106.529 10.12 106.105 10.02 105.721 9.82C105.345 9.62 105.045 9.328 104.821 8.944C104.605 8.552 104.497 8.076 104.497 7.516C104.497 6.964 104.613 6.488 104.845 6.088C105.077 5.68 105.385 5.368 105.769 5.152C106.161 4.936 106.589 4.828 107.053 4.828C107.517 4.828 107.909 4.936 108.229 5.152C108.549 5.36 108.793 5.608 108.961 5.896L108.889 6.088L108.997 5.032H110.029V10H108.913V8.704L109.033 8.992C109.001 9.072 108.929 9.176 108.817 9.304C108.713 9.424 108.569 9.548 108.385 9.676C108.209 9.804 108.005 9.912 107.773 10C107.541 10.08 107.281 10.12 106.993 10.12ZM107.293 9.196C107.573 9.196 107.825 9.144 108.049 9.04C108.273 8.936 108.457 8.792 108.601 8.608C108.753 8.416 108.857 8.188 108.913 7.924V6.952C108.849 6.712 108.737 6.504 108.577 6.328C108.417 6.144 108.225 6.004 108.001 5.908C107.777 5.804 107.529 5.752 107.257 5.752C106.961 5.752 106.689 5.824 106.441 5.968C106.193 6.112 105.993 6.312 105.841 6.568C105.697 6.824 105.625 7.124 105.625 7.468C105.625 7.788 105.701 8.08 105.853 8.344C106.005 8.608 106.209 8.816 106.465 8.968C106.721 9.12 106.997 9.196 107.293 9.196ZM112.956 5.032L113.064 6.472L113.004 6.28C113.132 5.976 113.316 5.72 113.556 5.512C113.804 5.296 114.06 5.132 114.324 5.02C114.596 4.9 114.832 4.84 115.032 4.84L114.972 5.944C114.596 5.92 114.264 5.992 113.976 6.16C113.696 6.328 113.472 6.552 113.304 6.832C113.144 7.112 113.064 7.412 113.064 7.732V10H111.96V5.032H112.956ZM116.952 2.848H118.068V5.056H119.436V5.932H118.068V10H116.952V5.932H116.04V5.056H116.952V2.848ZM123.089 10.12C122.521 10.12 122.033 10.008 121.625 9.784C121.217 9.552 120.901 9.24 120.677 8.848C120.461 8.448 120.353 7.992 120.353 7.48C120.353 6.992 120.477 6.548 120.725 6.148C120.973 5.748 121.305 5.428 121.721 5.188C122.137 4.948 122.601 4.828 123.113 4.828C123.769 4.828 124.313 5.02 124.745 5.404C125.177 5.788 125.469 6.316 125.621 6.988L121.529 8.428L121.265 7.768L124.625 6.544L124.385 6.7C124.289 6.436 124.129 6.208 123.905 6.016C123.681 5.816 123.389 5.716 123.029 5.716C122.725 5.716 122.453 5.792 122.213 5.944C121.973 6.088 121.785 6.288 121.649 6.544C121.513 6.8 121.445 7.092 121.445 7.42C121.445 7.764 121.517 8.068 121.661 8.332C121.805 8.588 122.001 8.792 122.249 8.944C122.505 9.088 122.793 9.16 123.113 9.16C123.329 9.16 123.537 9.12 123.737 9.04C123.945 8.96 124.137 8.856 124.313 8.728L124.829 9.556C124.581 9.724 124.301 9.86 123.989 9.964C123.685 10.068 123.385 10.12 123.089 10.12ZM128.015 5.032L128.123 6.472L128.063 6.28C128.191 5.976 128.375 5.72 128.615 5.512C128.863 5.296 129.119 5.132 129.383 5.02C129.655 4.9 129.891 4.84 130.091 4.84L130.031 5.944C129.655 5.92 129.323 5.992 129.035 6.16C128.755 6.328 128.531 6.552 128.363 6.832C128.203 7.112 128.123 7.412 128.123 7.732V10H127.019V5.032H128.015ZM134.123 1.324C134.755 1.324 135.295 1.432 135.743 1.648C136.191 1.856 136.535 2.16 136.775 2.56C137.023 2.96 137.147 3.444 137.147 4.012C137.147 4.356 137.095 4.696 136.991 5.032C136.887 5.36 136.719 5.66 136.487 5.932C136.263 6.196 135.967 6.408 135.599 6.568C135.231 6.728 134.783 6.808 134.255 6.808H132.971V10H131.807V1.324H134.123ZM134.243 5.692C134.587 5.692 134.871 5.636 135.095 5.524C135.319 5.412 135.495 5.272 135.623 5.104C135.751 4.928 135.843 4.744 135.899 4.552C135.955 4.36 135.983 4.188 135.983 4.036C135.983 3.86 135.955 3.68 135.899 3.496C135.843 3.304 135.747 3.132 135.611 2.98C135.483 2.82 135.311 2.692 135.095 2.596C134.887 2.492 134.627 2.44 134.315 2.44H132.971V5.692H134.243ZM140.731 10.12C140.267 10.12 139.843 10.02 139.459 9.82C139.083 9.62 138.783 9.328 138.559 8.944C138.343 8.552 138.235 8.076 138.235 7.516C138.235 6.964 138.351 6.488 138.583 6.088C138.815 5.68 139.123 5.368 139.507 5.152C139.899 4.936 140.327 4.828 140.791 4.828C141.255 4.828 141.647 4.936 141.967 5.152C142.287 5.36 142.531 5.608 142.699 5.896L142.627 6.088L142.735 5.032H143.767V10H142.651V8.704L142.771 8.992C142.739 9.072 142.667 9.176 142.555 9.304C142.451 9.424 142.307 9.548 142.123 9.676C141.947 9.804 141.743 9.912 141.511 10C141.279 10.08 141.019 10.12 140.731 10.12ZM141.031 9.196C141.311 9.196 141.563 9.144 141.787 9.04C142.011 8.936 142.195 8.792 142.339 8.608C142.491 8.416 142.595 8.188 142.651 7.924V6.952C142.587 6.712 142.475 6.504 142.315 6.328C142.155 6.144 141.963 6.004 141.739 5.908C141.515 5.804 141.267 5.752 140.995 5.752C140.699 5.752 140.427 5.824 140.179 5.968C139.931 6.112 139.731 6.312 139.579 6.568C139.435 6.824 139.363 7.124 139.363 7.468C139.363 7.788 139.439 8.08 139.591 8.344C139.743 8.608 139.947 8.816 140.203 8.968C140.459 9.12 140.735 9.196 141.031 9.196ZM149.731 9.544C149.507 9.72 149.239 9.86 148.927 9.964C148.615 10.068 148.303 10.12 147.991 10.12C147.447 10.12 146.971 10.012 146.563 9.796C146.155 9.58 145.835 9.28 145.603 8.896C145.379 8.504 145.267 8.044 145.267 7.516C145.267 6.988 145.387 6.528 145.627 6.136C145.875 5.744 146.195 5.444 146.587 5.236C146.987 5.02 147.415 4.912 147.871 4.912C148.271 4.912 148.627 4.968 148.939 5.08C149.259 5.192 149.531 5.344 149.755 5.536L149.203 6.256C149.059 6.144 148.883 6.044 148.675 5.956C148.467 5.868 148.231 5.824 147.967 5.824C147.679 5.824 147.411 5.9 147.163 6.052C146.923 6.196 146.731 6.396 146.587 6.652C146.451 6.908 146.383 7.196 146.383 7.516C146.383 7.82 146.455 8.104 146.599 8.368C146.743 8.624 146.943 8.828 147.199 8.98C147.455 9.124 147.747 9.196 148.075 9.196C148.291 9.196 148.487 9.164 148.663 9.1C148.847 9.036 149.011 8.948 149.155 8.836L149.731 9.544ZM151.171 10V0.711999H152.287V10H151.171ZM153.487 6.7L155.767 10H154.459L152.743 7.324L153.487 6.7ZM151.939 8.416L151.831 7.348L154.843 4.924L155.527 5.512L151.939 8.416Z" fill="white"/>
</g>
<defs>
<filter id="filter0_d_1_6" x="0.247986" y="0.712006" width="159.519" height="19.676" filterUnits="userSpaceOnUse" color-interpolation-filters="sRGB">
<feFlood flood-opacity="0" result="BackgroundImageFix"/>
<feColorMatrix in="SourceAlpha" type="matrix" values="0 0 0 0 0 0 0 0 0 0 0 0 0 0 0 0 0 0 127 0" result="hardAlpha"/>
<feOffset dy="4"/>
<feGaussianBlur stdDeviation="2"/>
<feComposite in2="hardAlpha" operator="out"/>
<feColorMatrix type="matrix" values="0 0 0 0 0 0 0 0 0 0 0 0 0 0 0 0 0 0 0.25 0"/>
<feBlend mode="normal" in2="BackgroundImageFix" result="effect1_dropShadow_1_6"/>
<feBlend mode="normal" in="SourceGraphic" in2="effect1_dropShadow_1_6" result="shape"/>
</filter>
</defs>
</svg>
